inDegrees=yes
name=ik_S46_A11_T03
DataType=double
version=3
OpenSimVersion=4.3-2021-08-27-4bc7ad9
endheader
time	pelvis_tilt	pelvis_list	pelvis_rotation	pelvis_tx	pelvis_ty	pelvis_tz	hip_flexion_r	hip_adduction_r	hip_rotation_r	knee_angle_r	knee_angle_r_beta	ankle_angle_r	subtalar_angle_r	mtp_angle_r	hip_flexion_l	hip_adduction_l	hip_rotation_l	knee_angle_l	knee_angle_l_beta	ankle_angle_l	subtalar_angle_l	mtp_angle_l	lumbar_extension	lumbar_bending	lumbar_rotation	arm_flex_r	arm_add_r	arm_rot_r	elbow_flex_r	pro_sup_r	wrist_flex_r	wrist_dev_r	arm_flex_l	arm_add_l	arm_rot_l	elbow_flex_l	pro_sup_l	wrist_flex_l	wrist_dev_l
0	0	0	0	0	0.9399999999999999	0	0	0	0	0	0	0	0	0	0	0	0	0	0	0	0	0	0	0	0	0	0	0	0	89.99999999963507	0	0	0	0	0	0	89.99999999869995	0	0
0.02	0.2001831663194747	-0.2299547606233097	35.82623624363458	0	0.9399999999999999	0	1.194100349603389	-0.5571836314634646	-0.4004080719692208	1.862028425425166	0.03249852678939484	0	0	0	1.194100349603389	-0.5571836314634646	-0.4004080719692208	1.862028425425166	0.03249852678939484	0	0	0	-0.0692328784847322	-0.09650838983834732	17.91808505622963	-0.7550364400666304	0.9439459355838434	-5.034878126430135	-0.08734089628368044	99.29294815937092	0	0	2.945135895635703	-1.792871116694016	-1.059498010898572	0.7928588367212256	106.1234176054259	0	0
0.04	0.1901887643286771	-0.2320183310629624	35.88343851322428	0	0.9399999999999999	0	1.615876929928847	-0.7475794158179375	-0.5559950485608176	2.164810730483126	0.03778307492943413	0	0	0	1.615876929928847	-0.7475794158179375	-0.5559950485608176	2.164810730483126	0.03778307492943413	0	0	0	-0.07699475940769021	-0.09582800960639169	17.87218288082659	-0.7383304621348079	0.9304164045599744	-5.042115277881194	-0.1732138110121219	99.07599765230383	0	0	2.957042846630073	-1.791741760080201	-1.014665158758037	0.8615683306894141	106.0409029563774	0	0
0.06	0.1944415876145622	-0.2330569695709044	35.94104174991566	0	0.9399999999999999	0	1.638973212067103	-0.7597143757220509	-0.563798266862132	2.20143998021234	0.03842237593974415	0	0	0	1.638973212067103	-0.7597143757220509	-0.563798266862132	2.20143998021234	0.03842237593974415	0	0	0	-0.0742193253845822	-0.09911514100884614	17.83879558082713	-0.7074635383947279	1.006000839069045	-4.717876710849768	-0.3047354789497845	98.61442185014272	0	0	2.982203691988533	-1.79363417403822	-0.9752701518382885	0.8915175053971455	106.0294829607143	0	0
0.08	0.1988900549605154	-0.2281242521983227	36.08999230775771	0	0.9399999999999999	0	2.162152288716892	-0.9959484970441893	-0.7539190138450851	2.619338698186716	0.04571608450826022	0	0	0	2.162152288716892	-0.9959484970441893	-0.7539190138450851	2.619338698186716	0.04571608450826022	0	0	0	-0.06711508758651839	-0.09991207534311551	17.70971613009302	-0.7227484652577817	1.037879765518974	-4.594904206158665	-0.3487913432991684	98.25487289156921	0	0	2.982438210662023	-1.798114591479112	-0.9285004691881831	0.9377399214682335	105.9846175284024	0	0
0.1	0.4498988597157189	0.2487219921367374	42.78448147885266	0	0.9399999999999999	0	45.78386092119111	-10.6399764503039	-10.76054148541638	53.86477543262445	0.9401176821466497	0	0	0	45.78386092119111	-10.6399764503039	-10.76054148541638	53.86477543262445	0.9401176821466497	0	0	0	-0.5960538402504857	-0.2941642831939995	11.05156485799118	-0.7099373863528173	1.082015830095461	-4.571532378917573	-0.4025611184204544	98.03383778679878	0	0	3.030392159249595	-1.809719790394605	-0.901164228562316	0.9651454948200211	105.9817604207699	0	0
0.12	0.4488197352670201	0.2462145543844355	42.82157916446194	0	0.9399999999999999	0	45.78116628503417	-10.63464813184678	-10.75571114383663	53.8675299800086	0.9401657580679053	0	0	0	45.78116628503417	-10.63464813184678	-10.75571114383663	53.8675299800086	0.9401657580679053	0	0	0	-0.5958158826114162	-0.2949425616308005	11.02843731232083	-0.6989252648579938	1.050911650241829	-4.527535309425108	-0.4356559730414856	97.9551802746159	0	0	3.064905822052788	-1.817910067651605	-0.8704578860937776	0.9734970093036284	105.9222514720654	0	0
0.14	0.4523157649618438	0.2368805344487743	42.87090980702686	0	0.9399999999999999	0	45.77874797627513	-10.62997202607941	-10.75142658807353	53.87000976323414	0.9402090384499268	0	0	0	45.77874797627513	-10.62997202607941	-10.75142658807353	53.87000976323414	0.9402090384499268	0	0	0	-0.5971174359285881	-0.3040706853270968	11.02468124798611	-0.7058596246243463	1.018275550480485	-4.498891226411782	-0.4728020565613199	97.93002449932298	0	0	3.098261003205348	-1.825520792795738	-0.8312566603042427	0.9864890692168263	105.8775169935685	0	0
